<?xml version="1.0" encoding="UTF-8" standalone="no"?>
<!--
  - This file is part of Open Sudoku 2 - an open-source Sudoku game.
  - Copyright (C) 2009-2023 by original authors.
  -
  - This program is free software: you can redistribute it and/or modify
  - it under the terms of the GNU General Public License as published by
  - the Free Software Foundation, either version 3 of the License, or
  - (at your option) any later version.
  -
  - This program is distributed in the hope that it will be useful,
  - but WITHOUT ANY WARRANTY; without even the implied warranty of
  - MERCHANTABILITY or FITNESS FOR A PARTICULAR PURPOSE.  See the
  - GNU General Public License for more details.
  -
  - You should have received a copy of the GNU General Public License
  - along with this program.  If not, see <https://www.gnu.org/licenses/>.
  -->

<svg xmlns:dc="http://purl.org/dc/elements/1.1/" xmlns:cc="http://creativecommons.org/ns#" xmlns:rdf="http://www.w3.org/1999/02/22-rdf-syntax-ns#"
    xmlns="http://www.w3.org/2000/svg" xmlns:sodipodi="http://sodipodi.sourceforge.net/DTD/sodipodi-0.dtd"
    xmlns:inkscape="http://www.inkscape.org/namespaces/inkscape" height="24" viewBox="0 0 24 24"
    width="24" version="1.1" id="svg2756" sodipodi:docname="centre_note.svg" inkscape:version="1.0 (4035a4fb49, 2020-05-01)">
  <metadata
     id="metadata2762">
    <rdf:RDF>
      <cc:Work
         rdf:about="">
        <dc:format>image/svg+xml</dc:format>
        <dc:type
           rdf:resource="http://purl.org/dc/dcmitype/StillImage" />
        <dc:title></dc:title>
      </cc:Work>
    </rdf:RDF>
  </metadata>
  <defs
     id="defs2760" />
  <sodipodi:namedview
     inkscape:document-rotation="0"
     pagecolor="#ffffff"
     bordercolor="#666666"
     borderopacity="1"
     objecttolerance="10"
     gridtolerance="10"
     guidetolerance="10"
     inkscape:pageopacity="0"
     inkscape:pageshadow="2"
     inkscape:window-width="1375"
     inkscape:window-height="1198"
     id="namedview2758"
     showgrid="false"
     showguides="true"
     inkscape:guide-bbox="true"
     inkscape:zoom="24.986624"
     inkscape:cx="12.45499"
     inkscape:cy="10.332013"
     inkscape:window-x="939"
     inkscape:window-y="122"
     inkscape:window-maximized="0"
     inkscape:current-layer="svg2756">
    <sodipodi:guide
       position="25.767605,23.014188"
       orientation="0,-1"
       id="guide2764" />
    <sodipodi:guide
       position="28.187105,1.0012642"
       orientation="0,-1"
       id="guide2766" />
    <sodipodi:guide
       position="0.83414848,19.920256"
       orientation="1,0"
       id="guide2770" />
    <sodipodi:guide
       position="22.992165,22.801859"
       orientation="1,0"
       id="guide2772" />
  </sodipodi:namedview>
  <path
     d="M0 0h24v24H0z"
     fill="none"
     id="path2752" />
  <path
     d="M 20.471787,0.985812 H 3.3119712 c -1.348272,0 -2.45140284,1.103131 -2.45140284,2.4514024 V 20.597032 c 0,1.348271 1.10313084,2.451402 2.45140284,2.451402 H 20.471787 c 1.348271,0 2.451402,-1.103131 2.451402,-2.451402 V 3.4372144 c 0,-1.3482714 -1.103131,-2.4514024 -2.451402,-2.4514024 z m 0,19.61122 H 3.3119712 V 3.4372144 H 20.471787 Z"
     id="path2754"
     sodipodi:nodetypes="sssssssssccccc"
     style="stroke-width:1.2257" />
  <g
     transform="translate(-0.00693606,-3.3436735e-4)"
     id="g879">
    <path
       d="M 6.49,10.5 V 15 H 7.64 V 9 H 6.77 l -1.76,1.27 0.58,0.89 z"
       id="polygon873" />
    <path
       id="path875"
       d="m 11.47,10.05 c 0.5,0 0.81,0.32 0.81,0.72 0,0.37 -0.14,0.64 -0.54,1.06 -0.36,0.38 -1.06,1.08 -2.13,2.15 V 15 H 13.5 V 14.01 H 11.13 L 11.1,13.96 c 0.68,-0.68 1.15,-1.14 1.4,-1.39 0.61,-0.6 0.92,-1.22 0.92,-1.86 0,-0.24 -0.05,-1.04 -0.91,-1.48 C 12.04,9 11.25,8.87 10.56,9.2 c -0.82,0.39 -0.99,1.13 -1,1.15 l 1.01,0.42 c 0.1,-0.33 0.38,-0.72 0.9,-0.72 z" />
    <path
       id="path877"
       d="m 16.99,13.94 c -0.83,0 -0.99,-0.76 -1.02,-0.86 l -1.03,0.41 c 0.45,1.59 2.01,1.51 2.05,1.51 1.2,0 1.68,-0.72 1.76,-0.85 0.32,-0.49 0.36,-1.24 -0.01,-1.76 -0.17,-0.24 -0.4,-0.41 -0.68,-0.52 V 11.8 c 0.2,-0.1 0.37,-0.26 0.52,-0.48 0.26,-0.41 0.31,-1.07 -0.02,-1.57 C 18.48,9.64 18.03,9 16.94,9 15.68,9 15.2,9.9 15.09,10.24 l 0.99,0.41 c 0.11,-0.32 0.35,-0.64 0.85,-0.64 0.44,0 0.75,0.26 0.75,0.65 0,0.58 -0.55,0.72 -0.88,0.72 h -0.46 v 1 h 0.5 c 0.56,0 1.04,0.24 1.04,0.79 0,0.49 -0.48,0.77 -0.89,0.77 z" />
  </g>
</svg>
